#N canvas 1121 218 693 481 10;
#X obj 85 112 oscparse;
#X obj 85 136 list trim;
#X obj 82 87 netreceive -u -b 5555;
#X msg 50 350 connect localhost 8000;
#X obj 254 330 oscformat prueba;
#X obj 254 351 list prepend send;
#X obj 255 372 list trim;
#X obj 50 387 netsend -u -b;
#X msg 251 305 200;
#X obj 85 159 route xy;
#X obj 87 188 unpack f f;
#X floatatom 88 225 5 0 0 0 - - -;
#X floatatom 154 222 5 0 0 0 - - -;
#X obj 50 320 loadbang;
#X text 172 186 Divide el mensaje en dos partes;
#X text 162 158 Identifica la etiqueta del mensaje;
#X msg 299 304 500;
#X text 10 334 Conecta el puerto recibe los ensajes;
#X text 361 329 Declara la etiqueta 'prueba' para el mensaje;
#X text 220 87 Recibe mensaje al puerto 5555;
#X text 82 18 Ejemplo para enviar y recibir mensajes OSC Primero ejecutar
el archivo de Processing con el mismo nombre;
#X connect 0 0 1 0;
#X connect 1 0 9 0;
#X connect 2 0 0 0;
#X connect 3 0 7 0;
#X connect 4 0 5 0;
#X connect 5 0 6 0;
#X connect 6 0 7 0;
#X connect 8 0 4 0;
#X connect 9 0 10 0;
#X connect 10 0 11 0;
#X connect 10 1 12 0;
#X connect 13 0 3 0;
#X connect 16 0 4 0;
